# xmcd
#
# Track frame offsets:
#	150
#	29507
#	51029
#	77109
#	107223
#	128893
#	153482
#	196199
#	221565
#	253135
#
# Disc length: 3677 seconds
#
# Revision: 1
# Processed by: cddbd v1.5.2PL0 Copyright (c) Steve Scherf et al.
# Submitted via: EZCDAudioConverter 8.0.2.1
#
DISCID=8b0e5b0a
DTITLE=Quang Tuấn - Chiều Vàng
DYEAR=2011
DGENRE=Contemporary Pop
TTITLE0=Chiều Vàng
TTITLE1=Tình rơi
TTITLE2=Đường xa vạn dặm
TTITLE3=Chiều nay không có em
TTITLE4=Như giọt sầu rơi
TTITLE5=Xin trả nợ người
TTITLE6=Đóa hoa vô thương
TTITLE7=Biển tím
TTITLE8=Tà áo xanh
TTITLE9=Nghe những tàn phai
EXTD=
EXTT0=
EXTT1=
EXTT2=
EXTT3=
EXTT4=
EXTT5=
EXTT6=
EXTT7=
EXTT8=
EXTT9=
PLAYORDER=
